<?xml version="1.0" encoding="UTF-8"?>
<svg id="Layer_2" data-name="Layer 2" xmlns="http://www.w3.org/2000/svg" viewBox="0 0 4323.13 1738.85">
  <defs>
    <style>
      .cls-1 {
        fill: #ddc06f;
      }

      .cls-1, .cls-2 {
        stroke-width: 0px;
      }

      .cls-3 {
        fill: #2f2660;
        font-family: ArialRoundedMTBold, 'Arial Rounded MT Bold';
        font-size: 86px;
      }

      .cls-4 {
        letter-spacing: .12em;
      }

      .cls-5 {
        letter-spacing: .12em;
      }

      .cls-6 {
        letter-spacing: .07em;
      }

      .cls-7 {
        fill: none;
        stroke: #98e08c;
        stroke-miterlimit: 10;
        stroke-width: 35px;
      }

      .cls-8 {
        letter-spacing: .11em;
      }

      .cls-2 {
        fill: #60c3e1;
      }
    </style>
  </defs>
  <g id="Layer_2-2" data-name="Layer 2">
    <path class="cls-7" d="M695.7,1155.59c-2.41,36.59,122.33,219.5,365,370,27.39,16.98,138,82,299,37,193.68-54.13,239.68-494.37,429-538,208.5-48.05,390.76,696.73,658,625,190-51,2125-763,1828-1644"/>
  </g>
  <g id="Layer_1-2" data-name="Layer 1">
    <g>
      <circle class="cls-1" cx="668.85" cy="1141.81" r="75.83"/>
      <path class="cls-2" d="M753.55,1056.01c1.5-6.75,4.99-12.89,9.75-17.91,35.04-37.03,221.58-231.63,294.9-255.94,81.08-26.88,107.51,56.98,145.78,48.86,0,0,48.59-2.94,32.97,48.35-.84,2.75-1.5,5.59-1.74,8.45-1.84,21.64-32.07,138.68-467.18,179.81-1.81.17-3.63.42-5.39.86-3.71.92-12.21,1.62-9.07-12.49Z"/>
      <path class="cls-2" d="M648.52,1021.17c-5.15-3.92-6.88-11.1-7.43-17.82-2.9-35.9,16.76-200.56,14.42-283.66-1.99-70.72-20.68-109.8,6.42-138.66,15.48-16.48,37.54-20.74,53.62-21.79,8.22,3.23,20.81,8.09,36.35,13.77,21.76,7.94,28.19,9.77,36.37,15.68,0,0,14.73,10.64,25.39,32.15,9.94,20.06,37.79,108.07-11.1,205.38-38.27,76.17-135.39,181.56-137.79,192.75-.08.37-.49,2.68-2.35,4.12-3.4,2.63-9.95,1.1-13.9-1.91Z"/>
      <path class="cls-2" d="M786.07,1169.09s143.65,287.85,296.21,290.79c0,0,80.76,10.56,126.33-164.76,0,0-3.35-147.72-392.51-139.1,0,0-38.99-5.1-30.03,13.07Z"/>
      <path class="cls-2" d="M716.67,1256.12s192.33,257.38,97.05,362.91c0,0-13.92,5.46-48.46,91.18,0,0-94.78,133.4-99.25-175.6,0,0-1.23-69.69,36.13-278.81,0,0,6.11-22.45,14.53.32Z"/>
      <path class="cls-2" d="M610.4,1246.83s-269.46,101.51-333.87,322.13c0,0-40.92,136.6,108.87,98.78,0,0,197.32-11.03,168.49-232.74,0,0-2.44-42.32,68.77-174.17,0,0,4.12-20.87-12.26-14Z"/>
      <path class="cls-2" d="M577.93,1051.85s-66.53-299.64-263.57-351.18c0,0-198.06,17.7-83.5,119.38,0,0,83.32,208.71,327.96,250.15,0,0,25.04,9.93,19.1-18.35Z"/>
      <path class="cls-2" d="M529.52,1157.27c-38.52-19.35-87.65-39.88-147.21-55.97-119.21-32.21-226.51-32.12-298.71-26.32-16.96,1.36-31.63,9.77-38.27,22.06-60.62,112.19-58.23,204.29-6.07,231.53,11.34,5.92,36.54,14.8,87.2,3.21,0,0,366.99-93.78,411.05-149.08,0,0,15.48-13.71-8-25.43Z"/>
    </g>
    <text class="cls-3" transform="translate(1384.54 1305.75)"><tspan class="cls-5" x="0" y="0">ISABEL</tspan><tspan class="cls-8" x="381.28" y="0">L</tspan><tspan class="cls-4" x="442.75" y="0">A </tspan><tspan class="cls-6" x="547.43" y="0">B</tspan><tspan class="cls-5" x="615.58" y="0">. PETERSEN</tspan></text>
  </g>
</svg>