<?xml version="1.0" encoding="UTF-8"?>
<svg id="Layer_2" data-name="Layer 2" xmlns="http://www.w3.org/2000/svg" viewBox="0 0 1257.61 1166.54">
  <defs>
    <style>
      .cls-1 {
        fill: #94eaea;
      }

      .cls-1, .cls-2 {
        stroke-width: 0px;
      }

      .cls-2 {
        fill: #7658a0;
      }
    </style>
  </defs>
  <g id="Layer_1-2" data-name="Layer 1">
    <g id="Layer_2-2" data-name="Layer 2">
      <g>
        <circle class="cls-1" cx="668.92" cy="569.5" r="75.8"/>
        <path class="cls-2" d="M771.02,501.1c1.5-6.8,5-12.9,9.8-17.9,35-37,221.6-231.6,294.9-255.9,81.1-26.9,107.5,57,145.8,48.9,0,0,48.6-2.9,33,48.3-.8,2.8-1.5,5.6-1.7,8.5-1.8,21.6-32.1,138.7-467.2,179.8-1.8.2-3.6.4-5.4.9-3.7.9-12.2,1.6-9.1-12.5h-.1v-.1Z"/>
        <path class="cls-2" d="M692.02,462c-5.2-3.9-6.9-11.1-7.4-17.8-2.9-35.9,16.8-200.6,14.4-283.7-2-70.7-20.7-109.8,6.4-138.7,15.5-16.5,37.5-20.7,53.6-21.8,8.2,3.2,20.8,8.1,36.3,13.8,21.8,7.9,28.2,9.8,36.4,15.7,0,0,14.7,10.6,25.4,32.2,9.9,20.1,37.8,108.1-11.1,205.4-38.3,76.2-135.4,181.6-137.8,192.8,0,.4-.5,2.7-2.3,4.1-3.4,2.6-10,1.1-13.9-1.9h0v-.1Z"/>
        <path class="cls-2" d="M786.12,596.8s143.6,287.8,296.2,290.8c0,0,80.8,10.6,126.3-164.8,0,0-3.3-147.7-392.5-139.1,0,0-39-5.1-30,13.1h0Z"/>
        <path class="cls-2" d="M716.72,683.8s192.3,257.4,97,362.9c0,0-13.9,5.5-48.5,91.2,0,0-94.8,133.4-99.2-175.6,0,0-1.2-69.7,36.1-278.8,0,0,6.1-22.4,14.5.3h.1Z"/>
        <path class="cls-2" d="M610.42,674.5s-269.5,101.5-333.9,322.1c0,0-40.9,136.6,108.9,98.8,0,0,197.3-11,168.5-232.7,0,0-2.4-42.3,68.8-174.2,0,0,4.1-20.9-12.3-14h0Z"/>
        <path class="cls-2" d="M595.32,457.8s-66.5-299.6-263.6-351.2c0,0-198.1,17.7-83.5,119.4,0,0,83.3,208.7,328,250.1,0,0,25,9.9,19.1-18.3h0Z"/>
        <path class="cls-2" d="M529.52,585c-38.5-19.3-87.6-39.9-147.2-56-119.2-32.2-226.5-32.1-298.7-26.3-17,1.4-31.6,9.8-38.3,22.1-60.6,112.2-58.2,204.3-6.1,231.5,11.3,5.9,36.5,14.8,87.2,3.2,0,0,367-93.8,411.1-149.1,0,0,15.5-13.7-8-25.4h0Z"/>
      </g>
    </g>
  </g>
</svg>