<?xml version="1.0" encoding="UTF-8"?>
<svg id="Layer_2" data-name="Layer 2" xmlns="http://www.w3.org/2000/svg" viewBox="0 0 1389.18 1314.41">
  <defs>
    <style>
      .cls-1 {
        fill: #74cbe5;
        stroke-width: 0px;
      }

      .cls-2, .cls-3 {
        fill: #2f2660;
        font-family: ArialRoundedMTBold, 'Arial Rounded MT Bold';
        font-size: 80.2px;
      }

      .cls-2, .cls-3, .cls-4 {
        isolation: isolate;
      }

      .cls-3 {
        letter-spacing: .1em;
      }
    </style>
  </defs>
  <g id="Layer_1-2" data-name="Layer 1">
    <g>
      <path class="cls-1" d="M339.34,38.42c-.55,1.38-1.22,2.71-1.8,4-1.61-2.28-2.01-5.87-1.67-10.06-13.89,41.28,1.76,92.56,22.59,124.46.55,12.19,6.88,22.42,14.11,22.89,7.2.38,12.58-9.14,12.09-21.46.55-2.78.84-5.98,1.86-8.08,9.36-18.51,14.81-40.56,18.12-64.59-1.65,4.69-3.28,9.69-4.93,14.38,1.12-6.94,2.27-13.79,1.65-21.36-1.26.9-2.42,2.09-3.68,3,7.2-24.21.87-55.92-14.28-70.83-15.15-14.9-33.21-7.54-40.47,16.81l-3.49,10.84h0l-.09.04Z"/>
      <path class="cls-1" d="M302.1,86.08c3.28-14.5,7.09-28.45,10.9-42.4l2.23-2.87-10.81,1.95.7.16c10.34,11.8,16.03,32.21,20.52,51.15l2.23,6.75c1.74,3.19,4.06,5.09,6.49,5.56,5.42,1.05,9.72-5.39,9.84-14.41l-.06-10.35c3.88-25.63.51-65.09-19.32-77.37-4.57-2.76-9.76.48-14.68,1.6-7.39-.31-12.78,9.75-12.09,22.32.69,12.57,7.15,22.85,14.5,23.06-.36,2.17-.58,4.39-.94,6.56-1.01-1.54-2.06-3.18-3.1-4.81,6.67,2.93,9.15,14.29,13.3,22.45l2.94,12.57,16.23-8.81-2.85-6.41c-.64.56-1.61,1.68-1.74,1.62-5.8-12.24-11.61-23.62-15.88-37.19l-7.85-16.81c-3.69-4.38-8.4-3.56-10.94,1.89l-2.94,8.06c.62-1.2,1.2-2.48,1.82-3.68-2.22,18.16-2.63,37.13-5.11,55.18-.52,2.87.53,6.21,2.29,7.47,1.82,1.13,3.63-.3,4.11-3.27h0l.19-.07.04.09Z"/>
      <g>
        <path class="cls-1" d="M293.9,23.43c.99-3.05,2.14-5.94,1.47-9.96-.89-.95-1.29-1.44-1.49-1.68-.66,1.64-1.46,3.76-2.36,5.92-1.7,4.28.09,6.17,2.47,5.69h0l-.09.04Z"/>
        <path class="cls-1" d="M293.88,11.78c.6-1.51,1.01-2.41,1.01-2.41-.51.62-.97,1.11-1.48,1.74l.32.84.15-.16Z"/>
        <path class="cls-1" d="M408.72,785.17c1.48,27.66,3.5,55.34,5.66,83.07,2.15,27.73,4.68,55.32,7.33,82.97.17,1.86,1.24,3.27,2.19,3.24s1.65-1.58,1.42-3.32c-2.56-27.68-5.08-55.28-7.2-82.92-2.12-27.64-4.1-55.22-5.58-82.88-.17-1.86-1.24-3.27-2.16-3.46-1.04.07-1.81,1.43-1.77,3.24h0l.13.06Z"/>
        <path class="cls-1" d="M358.33,1210.5c-1-1.23-2.1-1.02-2.61.45-.49,1.25-.34,3.34.66,4.56.8.98,2.12.8,2.61-.45.6-1.51.18-3.49-.66-4.56h0Z"/>
        <path class="cls-1" d="M274.73,1209.94c-2.64-7.55-5.33-14.66-9.06-20.84-.46-1.22-.64-2.54-.43-3.69-1.68.64-3.31-.56-4.43-3.24-10.81-26.6-19.51-54.42-27.52-82.93-7.97-28.42-15.07-57.38-22.65-86.16-1.37-.23-2.88-.83-4.25-1.92-4.73-3.45-8.01-11.3-8.35-19.83l.22-6.5c-.85-25.98-2.29-51.84-2.75-77.65-2.64-4.99-4.64-10.86-5.85-17.46-8.1-21.42-15.79-42.89-22.38-65.09-1.01,1.56-2.24,2.56-3.78,2.71-3.73.02-7-4.94-7.69-10.99-.5-3.02-.94-6.17-1.35-9.22.2,9.01.37,17.93.44,26.88.05,1.26-.03,2.47-.24,3.62,1.02,9.77,2.36,19.53,3.9,29.53,14,86.76,38.52,166.86,65.19,245.84.78,1.2.96,3.38.25,4.61-.72.91-1.99.97-2.65-.5-12.62-24.31-26.27-46.84-39.29-70.24-6.48-11.77-12.81-23.7-18.72-36.22-5.91-12.52-11.34-25.75-16.24-39.83-23.25-67.12-43.57-133.84-61.51-203.61-2.19-18.52-4.88-36.64-7.94-54.62-3.06-17.98-3.12-17.85-4.9-26.8-1.65-8.89-3.4-17.75-5.18-26.69-3.62-17.77-7.37-35.59-11.19-53.61-3.82-18.01-7.65-36.34-11.4-55.02C24.63,449.23,12.89,352.63,1.88,252.56c-6.71-37.24,5.15-73.15,26.14-80.13,12.78-4.09,25.89,3.15,35.81,17.78-.31-3.09-.5-6.12-.59-9.19l1.15-14.76c1.25-13.94,5.51-26.14,12.05-34.28l8.04-10.95c15.76-15.15,28.16-38.34,45.06-51.04l7,1.84,1.72-2.79c4.16-9.06,10.08-15.47,16.78-18.11l8.26.08c9.53.89,18.75,4.35,27.7,10.48,3.43-.55,6.93-.05,10.28,1.46,7.83-6.71,16.33-10.24,26.51-6.5,2.1-3.79,5.71-3.55,8.22.53.85,1.39,1.39,3.11,1.84,4.86h0c1.97-2.14,2.49-2.76,4.62-5.6.36-3.56.76-5.63.76-5.63.38-6.34.84-12.19,1.23-17.68,2.18-7.24,5.85-11.94,5.85-11.94,9.25-6.07,16.01-8.84,20.33-8.44.68.38,1.27.8,1.89,1.32,1.55-6.36,1.6-6.8,2.13-8.5.91-1.84,2.12-3.15,2.12-3.15,2.2-.4,3.7-.97,4.49-1.7,1.31-.5,2.48-.51,2.48-.51,2.71,2.08,4.49,3.11,5.22,3.05,1.14.75,2.07,1.78,2.07,1.78l2.33,6.17-7.98,9.43,3.16,1.58-3.8,2.4,3.65-1.38c-.04-.09-1.85,4.44-1.85,4.44l2.79-5.33c-.26,6.94-.22,11.85.17,14.58-.08,4.31,1.17,7.9,1.35,8.36,1.12-.42,1.94-.52,1.94-.52-.27,7.48-.61,14.77-.96,22.07-.78,1.04-1.5,1.96-2.17,2.74,1.11.97,1.86,2.93,1.91,5.05-.02,1.93-.07,3.77-.09,5.7.18.47.32.84.65,1.15l.28-.11c.89,1.8,1.52,3.17,2.18,4.63l.39,1.03h0c1.52,3.17,3.7,7.8,9.56,19.91-.12,3.36-.4,6.57-.89,9.53.47-1.03.87-1.93,1.37-2.87,1-1.88,4.38-.59,4.65-1.55,2.36-12.12,3.51-24.64,4.36-37.36s1.32-25.62,1.95-38.37c-.84-4.49.69-8.92,3.34-9.82,2.65-.9,5.31,2.16,6.09,6.78,5.56,12.44,10.01,25.62,13.28,39.35,3.36,13.7,5.64,27.91,7,42.26,1.36,14.35,1.63,28.89,1.12,43.09-.47,14.29-1.91,28.31-4.06,41.84-.36,14.03-.4,28.06-.41,42.17.48-.72.96-1.43,1.43-2.15-.42,3.69-.94,7.41-1.36,11.1.14.37-.03.76.02,1.17,1.65-2.98,3.44-5.9,5.12-8.78.43-1.98.76-3.92,1.19-5.9-.79-32.63,5.4-62.88,8.31-94.77,1.53-17.15,5.81-32.13,8.51-48.44-.07-4.14,1.77-7.19,4.22-6.94,2.35.29,4.37,3.91,4.49,7.92,9.18,52.55,11.45,113.38-4.47,157.78.89,9.71.19,19.17-2.61,27.29.04.09.11.28-.05.44,1.53-2.18,2.87-4.29,4.39-6.47-.53,7.36-4.16,11.62-5.21,18.44,2.17-1.04,4.31-2.17,6.52-3.11-.55,36.13,5.5,74.47-.73,108.58,0,1.39-.09,2.6-.22,3.93,6.24,13.68,12.37,27.61,14.87,44.41.05-5.79.18-11.4.33-17.23,4.18,11.89,7.54,23.88,8.63,36.94,3.28,35.54-2.56,76.34-18.12,97.09,9.98,68.5,19.81,137.16,32.49,205.18.68,3.49-.3,6.85-2.23,7.68-1.87.71-4.11-1.54-4.88-5-3.26-12.02-6.28-24.24-9.17-36.41-2.89-12.16-5.54-24.53-8.15-36.8-5.13-24.58-9.82-49.42-14.29-74.25.36,10.56.72,21.11,1.11,31.76.49,10.61.94,21.14,1.55,31.81,1.2,21.25,2.65,42.62,4.96,63.98.98,5.4,1.86,10.84,2.87,16.34.98,5.4,1.1,10.81.94,16.32,3.31,27.4,6.33,54.06,9.93,80.81,3.69,26.72,8.05,53.51,14.22,81.12,2.62,11.73,5.23,23.15,7.76,34.38,2.63,11.19,5.28,22.16,7.94,33.14,5.43,22,10.93,43.87,17.27,67.13,4.45,16.28,8.79,32.28,13.06,48.09,4.27,15.81,8.34,31.38,12.19,46.92,3.85,15.54,7.42,31.19,10.61,46.99,3.19,15.79,6.05,31.82,8.41,48.24,1.86,8.6-.74,17.28-5.63,19.02-4.86,1.84-10.47-3.95-12.34-12.55-35.12-134.69-72.33-266.98-87.79-411.02-1.69-15.5-3.32-30.82-4.81-46.08l-1.96.74c-2.77.3-5.54-.79-7.97-2.97,1.42,17.32,2.5,34.87,3.26,52.44,5.92,23.85,11.97,47.75,16.9,72.08s4.68,24.53,6.54,37.08,3.35,25.25,4.31,38.25c1.31,17.89,1.36,34.98,1.12,51.86-.24,16.88-.91,33.49-1.54,50.19,4.37,20.59,9.01,41.07,13.66,61.55,4.65,20.48,9.14,41.13,13.45,61.84.6,1.59.33,3.41-.56,4.17-.89.76-2.02.02-2.66-1.67-5.27-13.94-10.02-28.18-14.48-42.53-4.56-14.31-8.81-28.95-13.03-43.5-2.55,5.13-6.31,8.48-10.82,8.69-4.7.28-9.42-2.85-13.17-7.96l2.46,20.35c.42,4.22-.93,7.73-3.29,7.98-2.59.23-4.79-2.78-5.24-6.79-3.51-27.65-6.83-55.36-10.21-82.95-7.03-32.73-13.56-65.54-19.81-98.46-2.49,5-5.85,8.84-9.94,11.03h0c.78,5.16,1.61,10.19,2.38,15.35,25.41,92.06,45.69,186.93,56.93,283.92.3,1.92-.36,3.56-1.46,3.76s-2.13-1.12-2.36-2.85c-3.29-29.33-7.55-58.41-12.47-87.23h0c-.49,1.25-1.61,1.68-2.61.45-.8-.98-1.24-3.27-.66-4.56.51-1.48,1.77-1.53,2.61-.45-4.62-26.91-9.93-53.66-15.67-80.14-5.74-26.48-12.17-52.81-18.94-78.9,7.69,49.16,14.93,98.27,19.66,147.8,1.98,5.24,4.21,10.28,6.22,15.61s.05,3.51-.88,4.18c-.86.54-2.07-.39-2.55-1.92l-1.66-4.4c.88,9.4-2.7,17.17-8.25,17.77-5.78.26-11.23-7.08-12.44-16.78-4.6-25.74-8.8-51.52-12.58-77.35l-2.17-8.27c-1.25-2.74-2.55-5.34-3.8-8.08.72,10.1,1.57,20.26,2.29,30.35.72,10.1,1.44,20.2,2.29,30.35,1.44,20.2,2.78,40.43,4.19,60.53.55,3.43-.63,6.54-2.64,6.88-1.92.3-4.04-2.21-4.59-5.64-4.48-17.23-8.72-34.65-12.87-52.12s-8.11-35-11.84-52.51c-7.54-35.21-14.71-70.56-21.1-106.1-11.65-22.32-23.47-44.8-35.01-67.69.28,3,.5,6.12.9,9.17,2.45,19.49,6.45,37.97,11.25,56.04,4.77,17.98,10.31,35.45,16.03,52.85,11.55,34.76,23.55,69.03,31.33,106.29.49,1.85-.14,3.58-1.08,3.94s-2.12-.8-2.42-2.72c-8.47-36.25-21.29-68.71-31.98-104.33-8.93-29.55-17.15-57.77-27.35-85.02,4.94,28.6,11.77,56.28,19.11,83.86,7.33,27.59,14.86,55.11,21.11,83.22.88,2.34.7,4.97-.14,6.68.57.1,1.16.52,1.63,1.2,3.72,6.72,6.77,14.22,9.45,21.87.57,1.5.55,3.43-.49,4.36-.72.91-1.9.08-2.68-1.44h0l-.51.62-.09.04ZM273.47,197.51c.42-.59.75-1.14,1.01-1.56-.48,1.57-.97,3.36-1.57,5.19l-7.41,7.83s3.92-5.76,7.83-11.52l.04.09.09-.04ZM235.01,112.52h0c2.43-2.63,4.19-4.47,4.19-4.47-1.67,1.81-3.03,3.29-4.19,4.47ZM365.62,665.58c-3.39-30.15-4.86-60.06-3.29-90.38,1.24,7.23,2.57,14.42,3.9,21.62.18,22.81-.05,45.67-.61,68.76h0ZM298.28,135.63c-3.46,8.37-8.1,15.04-12.85,21.43,1.5,5.1,2.38,10.54,2.67,16.1.94,14.93,1.3,29.44,1.18,43.82,2.7-2.2,2.65,1.35,3.19,3.07.45,1.75.81,3.54,1.26,5.3.49-15.37,1.27-30.84,2.07-46.54.73-14.18.5-29.48,2.43-43.04l-.04-.09.09-.04ZM277.25,30.58c.36-.46.63-.88.96-1.43l4.56,2.44s-2.42-.47-5.42-1.05h0l-.09.04ZM269.6,26.74c-.16.7-.32,1.41-.45,2.2-1.64-.66-1.16-1.38.45-2.2ZM266.05,47.32c1.03-1.24,1.66-2.12,2.06-3.03l-2.06,3.03ZM141.74,73.39l22.07,5.77-21.31-6.59-.76.82h0Z"/>
      </g>
    </g>
    <g class="cls-4">
      <g class="cls-4">
        <g class="cls-4">
          <text class="cls-3" transform="translate(261.44 665.58)"><tspan x="0" y="0">ISABEL</tspan></text>
        </g>
      </g>
      <g class="cls-4">
        <g class="cls-4">
          <text class="cls-3" transform="translate(617.04 665.58)"><tspan x="0" y="0">L</tspan></text>
        </g>
      </g>
      <g class="cls-4">
        <g class="cls-4">
          <text class="cls-3" transform="translate(674.44 665.58)"><tspan x="0" y="0">A</tspan></text>
        </g>
      </g>
      <g class="cls-4">
        <g class="cls-4">
          <text class="cls-2" transform="translate(772.04 665.58)"><tspan x="0" y="0">B</tspan></text>
        </g>
      </g>
      <g class="cls-4">
        <g class="cls-4">
          <text class="cls-3" transform="translate(835.64 665.58)"><tspan x="0" y="0">. PETERSEN</tspan></text>
        </g>
      </g>
    </g>
  </g>
</svg>