<?xml version="1.0" encoding="UTF-8"?>
<svg id="Layer_2" data-name="Layer 2" xmlns="http://www.w3.org/2000/svg" viewBox="0 0 240.21 364.61">
  <defs>
    <style>
      .cls-1 {
        fill: #393651;
        stroke-width: 0px;
      }
    </style>
  </defs>
  <g id="Layer_1-2" data-name="Layer 1">
    <path class="cls-1" d="M123.51,354.99h0c-7.27-5.27-10.85-12.65-8-16.48l97.37-130.75c2.18-2.92,7.6-3.12,13.54-.23,1.45.7,2.9,1.55,4.3,2.53,1.78,1.25,3.4,2.64,4.8,4.11,4.47,4.7,5.83,9.78,3.68,12.67-32.46,43.58-64.91,87.17-97.37,130.75-2.85,3.83-11.06,2.67-18.33-2.6Z"/>
    <path class="cls-1" d="M127.15,364.61h0c-9.66-.09-17.42-8-17.33-17.67l3.18-329.69c.07-7.37,4.69-14.08,11.7-16.34,1.71-.55,3.51-.86,5.35-.9,2.34-.05,4.63.34,6.78,1.1,6.86,2.46,11.24,9.2,11.17,16.48-1.06,109.9-2.12,219.79-3.18,329.69-.09,9.66-8,17.42-17.67,17.33Z"/>
    <path class="cls-1" d="M7.29,223.99h0c-6.55,6.14-9.17,13.91-5.85,17.36l113.09,117.42c2.53,2.62,7.93,2.14,13.47-1.48,1.35-.88,2.68-1.91,3.95-3.06,1.61-1.46,3.04-3.05,4.24-4.68,3.84-5.22,4.55-10.44,2.05-13.03-37.7-39.14-75.39-78.28-113.09-117.42-3.32-3.44-11.31-1.25-17.86,4.89Z"/>
  </g>
</svg>