<?xml version="1.0" encoding="UTF-8"?>
<svg id="Layer_2" data-name="Layer 2" xmlns="http://www.w3.org/2000/svg" viewBox="0 0 1415.3 643.34">
  <defs>
    <style>
      .cls-1 {
        fill: #94f2db;
        stroke-width: 0px;
      }
    </style>
  </defs>
  <g id="Layer_1-2" data-name="Layer 1">
    <g>
      <path class="cls-1" d="M42.96,315.97c1.53.35,3.08.85,4.58,1.23-2.16,2.09-5.93,3.14-10.42,3.59,46.56,7.08,98.59-18.27,129.29-45.89,12.97-2.68,22.94-11.06,22.23-18.8-.74-7.74-11.88-11.84-24.99-9.19-3.07-.15-6.55.12-8.93-.57-21.43-6.64-46.02-8.58-72.43-7.94,5.35.88,10.93,1.81,16.29,2.69-7.65.09-15.23.07-23.27,2.06,1.2,1.14,2.64,2.22,3.84,3.37-27.31-3.35-60.24,9.24-73.53,27.88-13.34,18.71-2.11,36.5,25.16,39.78l12.19,1.78Z"/>
      <path class="cls-1" d="M100.33,346.81c-16.03-.99-31.55-2.41-47.14-3.98l-3.47-1.79,3.98,11.15.08-.8c10.73-13.06,31.57-22.84,51.04-30.83l6.76-3.54c3.06-2.38,4.77-5.21,4.85-7.81.24-5.92-7.41-9.42-17.05-7.87l-11.11,1.85c-28.13.43-69.75,11.24-79.3,34.44-2.12,5.35,2.3,10.24,4.4,15.25,1.01,7.8,12.69,11.75,25.99,8.78,13.32-2.99,23.14-11.68,22.02-19.52,2.37-.07,4.82-.14,7.17-.21-1.49,1.41-3.04,2.72-4.57,4.12,1.97-7.57,13.6-12.25,21.61-18.13l12.92-5.37-12.24-15.67-6.37,4.18c.73.61,2.05,1.45,1.98,1.54-12,8.36-23.22,16.49-36.93,23.47l-16.58,11.3c-4.06,4.67-2.25,9.53,3.99,11.16l9.12,1.66c-1.44-.47-2.84-.81-4.26-1.28,19.76-.97,40.09-3.87,59.7-4.56,3.14.07,6.51-1.6,7.59-3.76.85-2.08-.95-3.8-4.18-3.78Z"/>
      <g>
        <path class="cls-1" d="M34.97,366.7c-3.39-.54-6.68-1.2-10.92.27-.83,1.07-1.25,1.62-1.46,1.9,1.82.39,4.27.92,6.73,1.45,4.83,1.04,6.57-1.21,5.65-3.62Z"/>
        <path class="cls-1" d="M22.59,368.87c-1.69-.37-2.81-.62-2.81-.62.72.42,1.42.83,2.1,1.22.44-.24.45-.27.45-.27,0,0,.01-.02.26-.34Z"/>
        <path class="cls-1" d="M834.17,130.12c29.59-5.05,59.2-10.23,88.76-15.74,29.56-5.53,59.12-11.11,88.63-16.94,1.98-.38,3.45-1.57,3.28-2.72-.12-.99-1.88-1.64-3.69-1.2-29.54,5.75-59.06,11.27-88.55,16.75-29.5,5.46-59.04,10.62-88.63,15.67-1.97.42-3.4,1.6-3.42,2.71.17,1.15,1.77,1.76,3.63,1.47Z"/>
        <path class="cls-1" d="M1295.93,140.35c-1.2,1.15-.9,2.29.72,2.76,1.38.42,3.61.02,4.8-1.12,1.01-.97.66-2.35-.72-2.75-1.61-.49-3.78.15-4.8,1.11Z"/>
        <path class="cls-1" d="M1302.47,229.75c-7.8,3.41-15.13,6.95-21.37,11.45-1.19.73-2.66.93-3.84.74.87,1.68-.33,3.64-3.1,5.04-27.31,13.76-56.13,25.72-85.59,36.81-29.45,11.11-59.48,21.62-89.17,32.48-.08,1.52-.57,3.12-1.64,4.74-3.22,5.4-11.18,9.67-20.17,10.89l-6.9.43c-27.42,3.61-54.68,7.69-81.99,11.13-4.98,3.3-11,6.13-17.79,8.15-21.77,10.92-43.69,21.47-66.35,31.12,1.77.86,3.02,2.12,3.38,3.73.45,3.94-4.35,8.08-10.77,9.44-3.2.87-6.39,1.71-9.59,2.53,9.45-1.26,18.93-2.49,28.39-3.57,1.35-.25,2.63-.3,3.83-.22,10.16-2.25,20.38-4.68,30.71-7.47,90.04-24.7,172.25-58.71,253.54-94.56,1.26-.92,3.46-1.31,4.91-.67,1.03.73,1.17,2.03-.28,2.88-24.66,15.58-47.11,32.39-70.6,48.55-11.74,8.08-23.75,16-36.41,23.54-12.65,7.58-25.97,14.79-40.35,21.41-68.43,31.56-136.31,60.85-207.47,88-19.2,4.59-37.9,9.68-56.34,15.13-9.22,2.72-18.38,5.53-27.51,8.42-9.12,2.91-18.21,5.9-27.29,8.94-18.17,6.09-36.34,12.4-54.74,18.8-18.39,6.45-37.02,13.01-56.14,19.52-103.23,35.39-202.33,62.06-305.04,89.56-37.76,13.02-77.21,6.33-88.07-14.67-6.46-12.81-1.11-27.98,12.51-40.86-3.18.75-6.33,1.49-9.5,2.18l-15.63,1.23c-14.83,1.03-28.35-1.38-37.96-6.98l-12.95-6.66c-18.63-14.22-45.14-23.21-61.51-38.86l.69-7.7-3.24-1.33c-10.28-2.79-18.07-7.92-22.05-14.56l-1.41-8.74c-.72-10.24,1.3-20.59,6.17-31.11-1.21-3.55-1.29-7.32-.31-11.15-8.44-7.12-13.76-15.49-11.6-26.87-4.35-1.54-4.73-5.42-.91-8.73,1.32-1.12,3.03-2.04,4.85-2.69-.04-.03-.05-.02-.05-.02-2.61-1.69-3.39-2.18-6.77-3.93-3.86.23-6.13.23-6.13.23q-10.15,1.08-18.97,1.88c-8.07-1.07-13.67-4.04-13.67-4.04q-12.11-13.09-12.62-19.98c.3-.77.66-1.54,1.06-2.28-7.03-.47-7.52-.53-9.44-.74-2.13-.69-3.74-1.72-3.74-1.72q-1.22-3.46-2.67-4.44c-.72-1.28-.98-2.59-.98-2.59q2.55-4.88,2.35-6.03c.57-1.28,1.51-2.46,1.51-2.46,3.9-2.3,5.45-3.22,6.11-3.61,11.48,6.72,11.51,6.74,11.51,6.74l1.13-3.68,3.23,3.64-2.22-3.53,5.2,1.13-6.13-1.99q11.19-1.47,15.49-2.76c4.62-.73,8.23-2.68,8.67-2.88-.69-1.1-.94-1.95-.94-1.95q11.96-1.59,23.67-2.94c1.27.57,2.32,1.2,3.32,1.83.81-1.33,2.8-2.53,5.11-2.81,2.04-.3,4.07-.6,6.1-.89.39-.31.77-.6,1.12-.88-.05-.17-.09-.29-.09-.29,1.82-1.26,3.08-2.12,4.52-3.12.89-.69.92-.71.92-.71.01.01.05.01.07.03,3.12-2.15,7.63-5.26,19.57-13.5,3.63-.45,7.05-.69,10.33-.77-1.14-.3-2.24-.61-3.33-.98-2.17-.76-1.37-4.57-2.46-4.62-13.31-.35-26.91.49-40.62,1.86-13.7,1.38-27.53,3.24-41.31,4.86-4.66,1.67-9.66.86-11.09-1.71-1.37-2.63,1.37-6.05,6.15-7.71,12.25-8.13,25.62-15.18,39.7-21.17,14.09-5.98,28.91-10.86,44.03-14.76,15.13-3.89,30.57-6.77,45.93-8.68,15.37-1.87,30.65-2.75,45.44-2.72,15.05-2,30.11-4.29,45.19-6.66-.85-.38-1.7-.76-2.55-1.17,4.04-.11,8.07-.21,12.1-.32.43-.05.85-.11,1.27-.19-3.42-1.33-6.84-2.66-10.24-3.98-2.15-.13-4.3-.22-6.46-.26-34.77,6.3-68.24,4.65-102.81,7.18-18.58,1.33-35.35-.58-53.26-.55-4.41.79-7.98-.63-8.13-3.3-.13-2.55,3.43-5.32,7.73-6.13,54.77-19.06,119.73-31.68,169.96-22.08,10.26-2.47,20.54-3.3,29.68-1.56.15-.01.32-.03.48-.04-2.6-1.22-5.02-2.35-7.62-3.57,7.97-.67,13.13,2.55,20.56,2.58-1.4-2.15-2.97-4.23-4.38-6.39,38.8-5.3,79.11-17.53,116.58-16.18,1.44-.22,2.82-.3,4.19-.38,13.8-8.7,27.82-17.26,45.52-22.36-6.23.75-12.32,1.47-18.56,2.22,12.2-6.26,24.54-11.53,38.49-14.66,37.73-8.71,82.5-8.09,106.86,5.49,72.26-19.98,144.77-39.41,216.5-61.1,3.69-1.2,7.42-.49,8.58,1.44.87,1.97-1.13,4.59-4.81,5.78-12.62,4.91-25.33,9.62-38.11,14.17-12.78,4.57-25.63,9.01-38.54,13.31-25.81,8.62-51.86,16.72-77.92,24.84,11.28-1.8,22.57-3.6,33.88-5.41,11.31-1.82,22.63-3.69,33.97-5.66,22.67-3.93,45.37-8.33,68.17-13.29,5.71-1.67,11.46-3.35,17.22-5.04,5.69-1.68,11.54-2.46,17.44-2.95,29.01-6.84,57.37-13.09,85.71-20.08,28.34-7.02,56.7-14.61,85.72-24.05,12.39-4.05,24.38-8.04,36.17-11.99,11.79-3.93,23.38-7.86,34.94-11.85,23.13-7.97,46.18-16.23,70.7-25.12,17.22-6.28,34.05-12.42,50.68-18.48,16.64-6.02,33.13-11.74,49.65-17.23,16.52-5.47,33.08-10.67,49.91-15.43,16.83-4.73,33.92-9.06,51.47-12.88,9.2-2.68,18.69-.66,20.95,4.51,2.29,5.12-3.42,11.56-12.63,14.25-142.78,48.43-281.49,100.65-434.36,133.53-16.5,3.54-32.72,7.02-48.89,10.39.38.68.74,1.35.91,2.08.69,2.93-.21,5.99-2.24,8.86,18.42-3.53,37.08-6.65,55.9-9.41,24.93-9.09,49.92-18.07,75.6-25.99,12.84-3.96,25.86-7.66,39.13-10.95,13.28-3.26,26.82-6.11,40.7-8.43,19.08-3.12,37.48-5.06,55.64-6.4,18.16-1.33,36.07-2.13,54.13-3.09,21.66-6.7,43.3-13.39,64.98-20.1,21.69-6.7,43.45-13.42,65.46-19.66,1.7-.77,3.67-.61,4.54.29.87.91.14,2.17-1.58,2.93-14.62,6.66-29.5,13-44.56,19.11-15.06,6.11-30.31,11.97-45.66,17.72,5.74,2.26,9.68,5.96,10.34,10.83.7,5.04-2.19,10.31-7.42,14.73l21.61-4.38c4.47-.8,8.39.35,8.8,2.82.49,2.7-2.61,5.38-6.85,6.24-29.35,6.15-58.64,12.28-87.93,18.42-34.46,10.51-68.82,20.84-103.47,30.75,5.61,2.16,10.1,5.35,12.84,9.49.01.02.02.06.03.08,5.41-1.35,10.79-2.7,16.16-4.05,95.94-36.28,195.9-66.5,299.06-85.89,2-.47,3.85.08,4.14,1.24.28,1.14-1.07,2.42-2.89,2.72-31.12,5.9-61.97,12.68-92.52,20.34.06.01.08.02.14.03,1.39.41,1.9,1.63.72,2.75-1.02.99-3.44,1.53-4.8,1.14-1.6-.48-1.74-1.75-.74-2.73-28.43,7.26-56.61,15.15-84.48,23.77-27.86,8.65-55.44,17.82-82.67,27.62,51.81-12.87,103.76-25.22,156.31-34.42,5.36-2.68,10.7-5.37,16.18-8,1.51-.61,3.71-.39,4.57.52.64.84-.25,2.25-1.81,2.86-1.53.68-3.03,1.41-4.55,2.11,9.96-1.72,18.6,1.36,19.72,7.28.78,6.15-6.67,12.65-16.95,14.68-27.14,7.2-54.31,13.77-81.52,20.14l-8.61,3.03c-2.77,1.59-5.52,3.19-8.27,4.81,10.74-1.75,21.48-3.51,32.2-5.26,10.74-1.67,21.48-3.33,32.21-4.99,21.46-3.26,42.89-6.49,64.29-9.52,3.6-.84,7.06.19,7.59,2.27.54,2.06-2,4.49-5.61,5.32-18.1,6.11-36.25,12.2-54.51,18.07-18.24,5.9-36.58,11.58-54.96,17.27-36.76,11.33-73.81,22.06-110.99,32.54-22.65,14.63-45.33,29.38-68.45,44.17,3.2-.58,6.44-1.21,9.66-1.93,20.41-4.73,39.71-10.75,58.37-17.62,18.67-6.84,36.7-14.54,54.65-22.26,35.89-15.46,71.33-31.6,110.41-42.94,1.93-.71,3.78-.16,4.27.83.44,1-.67,2.36-2.68,2.82-37.94,12.01-71.26,28.77-108.23,43.49-30.61,12.28-59.7,23.91-87.64,37.39,29.87-8.04,58.61-18.19,87.25-28.53,28.65-10.29,57.15-20.98,86.51-30.08,2.5-1.07,5.25-1.14,7.16-.4.01-.61.42-1.28,1.15-1.8,6.84-4.54,14.54-8.41,22.49-11.98,1.49-.84,3.6-.83,4.7.14,1.03.73.29,1.99-1.35,3ZM223.98,358.08c-.71-.33-1.28-.6-1.82-.85,1.78.23,3.7.48,5.82.76l9.53,6.55s-6.76-3.15-13.53-6.45ZM140.09,413.2s.02,0,.05-.01c-3.18-2.11-5.47-3.63-5.47-3.63,2.23,1.5,3.97,2.67,5.42,3.65ZM710.85,190.85c-31.87,7.47-63.81,13.21-96.54,15.5,7.57-2.33,15.1-4.66,22.66-6.99,24.45-3.25,49.04-6.15,73.88-8.51ZM153.84,342.24c9.49,2.22,17.39,5.93,24.98,9.92,5.21-2.45,10.83-4.32,16.69-5.58,15.74-3.43,31.21-6.24,46.55-8.55-2.71-2.48.96-3.05,2.7-3.88,1.83-.73,3.63-1.45,5.43-2.18-16.49,2.01-33.09,3.83-50.01,5.52-15.26,1.54-31.53,4.43-46.35,4.75ZM45.64,383.04c-.55-.26-1.04-.49-1.65-.72l1.79-5.23s-.09,2.51-.14,5.95ZM42.95,391.81c.79,0,1.59.03,2.44.02-.38,1.87-1.27,1.46-2.44-.02ZM65.36,391.87c-1.55-.86-2.5-1.39-3.6-1.61,3.58,1.6,3.6,1.61,3.6,1.61ZM114.91,518.74l2.21-24.4-3.18,23.71.97.69Z"/>
      </g>
    </g>
  </g>
</svg>