<?xml version="1.0" encoding="UTF-8"?>
<svg id="Layer_2" data-name="Layer 2" xmlns="http://www.w3.org/2000/svg" viewBox="0 0 1395.88 605.83">
  <defs>
    <style>
      .cls-1 {
        fill: #74cbe5;
        stroke-width: 0px;
      }
    </style>
  </defs>
  <g id="Layer_1-2" data-name="Layer 1">
    <g>
      <path class="cls-1" d="M88.22,59.23c1.13,1.07,2.2,2.28,3.29,3.36-2.89.72-6.64-.25-10.7-2.12,36.18,29.58,93.53,33.31,133.41,24.54,12.45,4.03,25.13,1.62,28.33-5.47,3.16-7.1-4.37-16.13-16.91-20.23-2.56-1.63-5.67-3.11-7.36-4.9-15.05-16.38-35.07-30.23-57.88-42.72,4.12,3.41,8.42,6.97,12.55,10.39-6.57-3.71-13.02-7.47-20.85-9.71.45,1.58,1.15,3.22,1.6,4.82C132.1.76,97.9-4.89,77.24,4.61c-20.73,9.5-20.15,30.48,1.47,46.98l9.51,7.64Z"/>
      <path class="cls-1" d="M121.89,114.63c-13.27-8.83-25.83-17.9-38.39-27.06l-2.08-3.29-2.19,11.63.48-.65c15.75-5.95,38.42-3.83,59.11-1.17l7.56.28c3.81-.55,6.68-2.15,8.04-4.37,3.15-5.02-1.67-11.84-10.7-15.28l-10.43-3.9c-24.26-13.66-65.13-25.19-84.97-9.93-4.5,3.56-3.2,9.99-3.92,15.38-3.07,7.24,4.93,16.51,17.81,20.62,12.91,4.1,25.67,1.51,28.64-5.82,2.06,1.13,4.19,2.29,6.24,3.41-1.98.47-3.97.82-5.97,1.27,5.48-5.56,17.76-3.77,27.55-4.85l13.75,1.77-2.68-19.65-7.53.44c.32.89,1.03,2.28.92,2.32-14.43,1.22-28.08,2.63-43.3,1.79l-19.84,1.46c-5.82,2-6.72,7.11-2.2,11.64l6.98,6.01c-.99-1.12-2.02-2.12-3.01-3.25,17.4,9.07,36.27,16.77,53.43,26.01,2.66,1.62,6.39,1.85,8.39.51,1.77-1.38,1.08-3.76-1.7-5.35Z"/>
      <g>
        <path class="cls-1" d="M55.93,99.07c-2.63-2.17-5.11-4.39-9.48-5.24-1.25.51-1.88.77-2.21.91,1.36,1.25,3.19,2.94,5.03,4.63,3.61,3.32,6.24,2.25,6.66-.29Z"/>
        <path class="cls-1" d="M44.24,94.73c-1.26-1.17-2.09-1.94-2.09-1.94.4.73.8,1.43,1.18,2.11.5,0,.52,0,.52,0,0,0,.02,0,.4-.16Z"/>
        <path class="cls-1" d="M863.45,272.93c28.33,8.98,56.85,17.48,85.44,25.81,28.58,8.36,57.3,16.3,86.04,24.14,1.92.53,3.75.12,4.11-.99.32-.94-.94-2.3-2.74-2.71-28.73-7.93-57.36-15.9-85.87-24.27-28.51-8.35-56.95-16.83-85.27-25.8-1.93-.52-3.72-.11-4.24.87-.37,1.1.76,2.37,2.53,2.95Z"/>
        <path class="cls-1" d="M1270.83,484.77c-1.58.53-1.79,1.69-.53,2.8,1.07.97,3.25,1.56,4.81,1.04,1.32-.45,1.59-1.84.52-2.8-1.25-1.13-3.48-1.48-4.8-1.05Z"/>
        <path class="cls-1" d="M1238.59,568.39c-8.53-.26-16.71-.2-24.31,1.2-1.39.15-2.81-.3-3.81-.97.07,1.89-1.86,3.14-4.98,3.22-30.72.78-62.01-1.12-93.56-3.87-31.55-2.78-63.3-6.69-94.96-9.95-.74,1.33-1.9,2.55-3.58,3.54-5.3,3.45-14.39,3.73-23.05.81l-6.42-2.69c-26.36-9.03-52.81-17.38-78.94-26.66-5.97.7-12.66.51-19.68-.74-24.5-.12-49.05-.44-73.79-2.28,1.2,1.58,1.75,3.27,1.34,4.87-1.39,3.71-7.59,5.2-13.98,3.49-3.27-.68-6.52-1.4-9.77-2.14,9.07,3.19,18.15,6.44,27.16,9.8,1.32.4,2.5.94,3.55,1.56,10.16,2.66,20.49,5.05,31.06,7.24,92.32,18.84,181.93,24.67,271.26,27.83,1.54-.28,3.71.32,4.75,1.53.62,1.1.18,2.33-1.51,2.48-29.18,3.39-56.89,8.59-85.32,12.74-14.21,2.08-28.61,3.9-43.45,5.09-14.83,1.15-30.1,1.66-46.09,1.16-76.14-2.18-150.79-7.07-227.52-15.6-19.42-4.83-38.61-8.99-57.75-12.71-9.57-1.86-19.13-3.62-28.69-5.29-9.55-1.7-19.11-3.33-28.7-4.9-19.17-3.15-38.45-6.1-57.99-9.08-19.53-3.03-39.32-6.11-59.54-9.46-109.27-17.98-210.56-42.84-315.13-69.81-39.9-7.43-71.44-32.88-70.45-56.58.73-14.36,13.01-24.78,31.38-29.17-3.18-.91-6.3-1.86-9.43-2.85l-14.33-6.77c-13.52-6.54-24.17-15.4-29.77-25.06l-7.98-12.25c-9.17-21.59-27.74-42.76-34.06-64.55l4.48-6.3-2.14-2.78c-7.51-7.6-11.68-15.96-11.78-23.7l3.19-8.26c4.54-9.21,11.51-17.13,21.01-23.76.74-3.68,2.56-6.97,5.34-9.79-3.71-10.4-4.09-20.31,3.49-29.06-2.98-3.52-1.35-7.07,3.6-8,1.7-.3,3.63-.24,5.53.11-.02-.04-.04-.05-.04-.05-1.4-2.78-1.82-3.59-3.86-6.8-3.44-1.74-5.39-2.88-5.39-2.88q-9.27-4.17-17.26-7.91c-6.4-4.98-9.71-10.35-9.71-10.35q-3.8-17.39-.76-23.59c.65-.52,1.34-1,2.06-1.44-5.79-3.93-6.18-4.23-7.72-5.38-1.48-1.66-2.34-3.36-2.34-3.36q.7-3.6-.05-5.17c.03-1.46.46-2.73.46-2.73q4.65-2.93,5.05-4.03c1.14-.82,2.54-1.36,2.54-1.36,4.5-.03,6.29-.05,7.05-.05,6.44,11.57,6.46,11.6,6.46,11.6l2.82-2.61.93,4.76-.12-4.17,3.89,3.58-4.25-4.79q10.33,4.35,14.65,5.38c4.33,1.69,8.4,1.81,8.88,1.86-.04-1.3.17-2.16.17-2.16q11.05,4.63,21.76,9.34c.8,1.13,1.39,2.2,1.93,3.25,1.36-.75,3.66-.78,5.79.13,1.9.77,3.79,1.53,5.68,2.29.49-.07.96-.13,1.4-.19.05-.17.06-.3.06-.3,2.19-.18,3.71-.31,5.44-.45,1.11-.15,1.14-.16,1.14-.16,0,.02.04.04.05.06,3.75-.32,9.17-.78,23.54-1.99,3.34,1.41,6.4,2.9,9.26,4.46-.83-.83-1.62-1.64-2.37-2.5-1.49-1.73,1.09-4.64.18-5.23-11.26-6.92-23.36-12.9-35.78-18.57-12.42-5.68-25.18-11-37.78-16.52-4.82-.89-8.69-4.1-8.63-7.03.16-2.96,4.21-4.55,9.13-3.58,14.55-.89,29.49-.29,44.51,1.59,15.03,1.86,30.15,4.92,45.04,9.05,14.89,4.12,29.55,9.28,43.66,15.24,14.12,5.92,27.7,12.63,40.41,19.92,13.93,5.64,28.02,11.04,42.17,16.37-.55-.75-1.1-1.49-1.62-2.27,3.54,1.87,7.07,3.74,10.59,5.6.39.16.79.31,1.19.45-2.31-2.82-4.61-5.64-6.9-8.44-1.8-1.15-3.6-2.29-5.44-3.38-33.01-11.61-61.02-29.32-91.87-44.25-16.57-8.05-29.98-18.01-45.3-26.86-4.16-1.49-6.5-4.49-5.31-6.89,1.15-2.27,5.58-2.92,9.65-1.49,56.22,10.69,118.01,31.5,156.59,64.33,10.04,2.82,19.3,7.07,26.34,13.02.14.06.29.13.43.2-1.65-2.32-3.19-4.49-4.84-6.81,7.19,3.28,10.08,8.59,16.49,12.22-.17-2.56-.52-5.14-.68-7.71,36.01,14.29,76.79,22.7,108.59,41.91,1.35.5,2.58,1.09,3.81,1.67,16.13-1.09,32.37-1.98,50.15,1.92-5.76-2.3-11.39-4.54-17.16-6.84,13.56.27,26.77,1.49,40.36,5.35,36.86,10.21,75.59,31.57,90.53,55.05,72.51,15.94,145.04,32.21,218.05,45.27,3.79.6,6.75,2.92,6.9,5.17-.12,2.15-3.07,3.58-6.86,2.97-13.34-1.33-26.68-2.9-40.01-4.64-13.33-1.76-26.65-3.73-39.97-5.82-26.64-4.18-53.27-8.87-79.87-13.84,10.72,3.66,21.45,7.33,32.22,10.91,10.78,3.57,21.6,7.1,32.47,10.55,21.75,6.87,43.72,13.5,66.1,19.35,5.8,1.1,11.63,2.21,17.48,3.32,5.79,1.08,11.3,3.04,16.73,5.28,28.69,7.13,56.61,14.19,84.84,20.64,28.22,6.48,56.77,12.2,86.73,16.56,12.8,1.84,25.2,3.59,37.42,5.22,12.22,1.61,24.25,3.14,36.29,4.6,24.08,2.92,48.17,5.63,73.9,8.11,18.06,1.75,35.72,3.47,53.17,5.16,17.43,1.76,34.63,3.51,51.73,5.59,17.1,2.07,34.1,4.44,51.17,7.23,17.07,2.77,34.2,6.01,51.54,9.91,9.36,1.43,17.03,7.24,16.91,12.88-.09,5.61-7.89,9.05-17.3,7.62-148.43-15.9-295.2-28.74-445.52-67.83-16.21-4.23-32.16-8.38-47.99-12.62.03.78.05,1.54-.13,2.27-.71,2.93-2.88,5.25-5.98,6.9,17.92,5.1,35.87,10.67,53.8,16.64,26.18,3.11,52.39,6.11,78.75,10.37,13.18,2.13,26.39,4.58,39.65,7.5,13.27,2.89,26.6,6.23,39.99,10.21,18.39,5.52,35.64,11.88,52.47,18.53,16.83,6.64,33.21,13.65,49.8,20.58,22.26,3.43,44.57,6.53,66.91,9.69,22.35,3.15,44.71,6.46,67.17,9.99,1.85.02,3.56.99,3.96,2.17.4,1.19-.79,2.02-2.66,1.99-15.98-.08-32.04-.66-48.17-1.57-16.13-.9-32.34-2.1-48.6-3.44,4.19,4.49,6.15,9.52,4.66,14.19-1.53,4.86-6.39,8.38-12.99,10.15l21.34,5.26c4.37,1.18,7.41,3.89,6.73,6.3-.71,2.65-4.66,3.75-8.84,2.72-29.09-6.92-58.06-14.1-87.04-21.22-35.54-5.33-70.82-11.26-106.23-17.48,4.07,4.4,6.7,9.23,7.33,14.15,0,.03,0,.06-.01.08,5.44,1.15,10.87,2.3,16.27,3.44,101.99,9.46,204.83,25.07,306.31,50.64,2.01.42,3.45,1.69,3.23,2.87-.22,1.16-1.98,1.75-3.76,1.25-30.62-7.79-61.39-14.55-92.22-20.59.05.03.07.05.11.08,1.08.96,1.02,2.29-.52,2.8-1.34.46-3.75-.08-4.82-1.02-1.24-1.11-.82-2.33.49-2.79-28.72-5.6-57.53-10.39-86.31-14.65-28.78-4.28-57.58-7.84-86.31-10.93,52.17,10.95,104.24,22.29,155.63,36.31,5.98-.13,11.95-.28,18.01-.32,1.62.1,3.52,1.24,3.91,2.43.22,1.03-1.18,1.92-2.85,1.82-1.67-.04-3.33-.02-5-.03,9.72,2.71,16.22,9.17,14.73,15-1.91,5.92-11.41,8.62-21.57,6.06-27.6-5.12-55-10.7-82.3-16.71l-9.08-1c-3.19.23-6.35.49-9.53.76,10.45,3.07,20.89,6.13,31.33,9.19,10.43,3.09,20.85,6.17,31.27,9.26,20.82,6.2,41.57,12.55,62.27,18.81,3.62.76,6.32,3.15,5.92,5.26-.38,2.09-3.71,3.22-7.35,2.45-19.03-2.07-38.05-4.44-57.1-6.91-19.05-2.51-38.13-5.1-57.18-7.99-38.12-5.74-76.29-12.04-114.39-19.05-26.84,3.2-53.82,6.53-81.2,9.42,3.14.91,6.34,1.79,9.56,2.57,20.47,4.91,40.58,7.89,60.44,9.95,19.87,2.03,39.5,3.14,59.11,3.94,39.22,1.62,78.21,2.57,118.51,8.94,2.05.19,3.49,1.48,3.52,2.58-.03,1.09-1.62,1.85-3.64,1.4-39.57-5.29-76.93-4.74-116.8-7.5-33.04-2.24-64.4-4.71-95.6-4.85,30.54,5.88,60.95,9.5,91.38,12.66,30.44,3.12,60.85,5.99,91.41,10.35,2.73.11,5.25,1.22,6.67,2.71.27-.55.93-.97,1.81-1.13,8.15-1.17,16.8-1.37,25.55-1.2,1.71-.12,3.62.79,4.2,2.13.62,1.1-.59,1.92-2.51,2.13ZM222.86,185.64c-.45-.64-.81-1.15-1.15-1.64,1.43,1.08,2.96,2.24,4.66,3.52l5.03,10.39s-4.3-6.06-8.53-12.27ZM123.02,191.94s.01,0,.05.01c-1.69-3.41-2.91-5.87-2.91-5.87,1.18,2.41,2.1,4.29,2.86,5.86ZM727.18,270.71c-31.47-8-62.13-17.88-91.88-30.99,7.72,1.45,15.4,2.88,23.11,4.33,22.95,8.43,45.83,17.4,68.77,26.66ZM170.17,137.24c7.06,6.63,12.03,13.79,16.6,21.02,5.7.48,11.47,1.63,17.16,3.4,15.28,4.75,30.03,9.9,44.43,15.44-1.13-3.49,2.33-2.18,4.24-2.05,1.94.26,3.85.52,5.77.78-15.24-6.35-30.47-12.93-45.91-19.77-13.94-6.12-29.37-11.73-42.28-18.81ZM56.85,118.54c-.34-.5-.65-.94-1.05-1.46l4.17-3.62s-1.36,2.21-3.12,5.07ZM50.14,124.77c.68.4,1.34.82,2.08,1.25-1.26,1.43-1.83.62-2.08-1.25ZM69.34,136.07c-.9-1.52-1.45-2.45-2.28-3.2,2.27,3.18,2.28,3.2,2.28,3.2ZM48.33,270.66l14.19-19.97-14.68,18.88.49,1.08Z"/>
      </g>
    </g>
  </g>
</svg>