<?xml version="1.0" encoding="UTF-8"?>
<svg id="Layer_2" data-name="Layer 2" xmlns="http://www.w3.org/2000/svg" viewBox="0 0 1915.94 825.35">
  <defs>
    <style>
      .cls-1 {
        fill: #7c3a98;
        stroke-width: 0px;
      }
    </style>
  </defs>
  <g id="Layer_1-2" data-name="Layer 1">
    <g>
      <path class="cls-1" d="M1849.18,260.92c-2.05.46-4.2.76-6.23,1.16,1.76-3.62,5.96-6.95,11.32-10.01-30.43,9.1-58.94,27.95-83.46,50.5-24.5,22.55-45.04,48.81-58.98,72.85-15.33,9.89-24.7,24.78-20.78,33.48,3.96,8.68,19.81,7.75,35.47-2.25,3.97-1.45,8.3-3.59,11.61-4.03,29.98-3.55,62.14-14.57,95.34-30.07-7.15,1.94-14.62,3.97-21.79,5.91,9.67-4.33,19.29-8.52,28.61-15.34-2-.65-4.28-1.09-6.29-1.75,17.98-5.68,36.05-16.88,50.6-30.35,14.55-13.46,25.56-29.18,29.64-43.77,4.1-14.64.56-25.4-8.34-31.01-8.91-5.61-23.19-6.07-40.82-.19l-15.9,4.87Z"/>
      <path class="cls-1" d="M1764.56,257.05c20.25-7.51,40.08-14.35,60.01-21.25l5.08.11-9.89-10.58.26.97c-7.35,21-28.92,43.7-49.73,63.48l-6.91,7.75c-2.81,4.4-3.74,8.6-2.75,11.65,2.19,6.99,13.25,6.94,24.65-.13l13.09-8.22c17.48-7.95,38.03-20.89,54.28-35.95,16.26-15.05,28.2-32.16,28.72-48.17.14-7.34-7.52-10.39-12.4-14.92-4.83-8.33-20.89-6.19-35.85,4.67-14.97,10.89-23.19,26.27-18.35,34.68-2.89,1.39-5.89,2.83-8.76,4.2,1.22-2.44,2.56-4.81,3.82-7.26.92,9.8-11.4,21.59-18.8,32.73l-13.74,13.24,21.98,11.4,6.13-8.33c-1.17-.3-3.18-.54-3.13-.69,11.35-16.24,21.68-31.8,35.49-47.52l15.32-22.31c2.87-7.65-1.58-12.18-9.97-10.52l-11.94,3.23c1.97-.27,3.84-.66,5.81-.93-23.78,12.23-47.55,26.75-71.48,38.1-3.91,1.62-7.34,5.36-7.74,8.43-.16,2.86,2.82,3.88,6.8,2.11Z"/>
      <g>
        <path class="cls-1" d="M1836.19,198.23c4.39-1.29,8.73-2.39,13.23-6.46.52-1.69.78-2.56.92-3-2.4.58-5.64,1.36-8.88,2.14-6.38,1.53-7.48,5.08-5.26,7.32Z"/>
        <path class="cls-1" d="M1850.33,188.77c2.23-.53,3.71-.89,3.71-.89-1.09-.09-2.12-.14-3.12-.21-.42.53-.42.56-.42.56,0,0,0,.02-.17.54Z"/>
        <path class="cls-1" d="M845.51,785c-43.15,9.1-86.99,17.01-131.61,23.13-44.61,6.12-89.99,10.47-136.06,12.36-3.08.14-5.61,1.3-5.68,2.72-.08,1.22,2.41,2.34,5.26,2.11,46.3-1.78,91.77-6.05,136.45-12.11,44.68-6.07,88.58-13.94,131.86-23.06,2.89-.71,5-2.31,5.05-3.68-.23-1.4-2.54-2-5.26-1.47Z"/>
        <path class="cls-1" d="M205.48,640.03c2.25-.24,2.71-1.61,1.18-3.28-1.32-1.42-4.15-2.78-6.36-2.58-1.88.18-2.5,1.8-1.2,3.27,1.5,1.73,4.48,2.81,6.38,2.59Z"/>
        <path class="cls-1" d="M260.63,545.23c5,.79,9.87,1.51,14.68,1.76,2.39.15,4.75.23,7.08.23,2.32,0,4.64-.18,6.9-.42,1.65-.06,3.25.62,4.33,1.54.15-2.33,2.51-3.61,6.15-3.5,35.71,1.38,71.5,2.53,107.71,1.9,36.16-.62,72.74-3.02,108.93-8.53.45-1.78,1.39-3.6,2.97-5.28,2.44-2.85,6.12-5.06,10.48-6.47,4.37-1.49,9.41-2.11,14.62-1.88l7.91.94c31.88,1.33,64.24.18,96.98-1.54,6.18-3.62,13.5-6.54,21.69-8.6,26.51-11.88,52.67-24.46,79.47-36.56-2.15-1.03-3.67-2.55-4.15-4.51-.32-2.4.91-4.87,3.15-6.96,2.25-2.12,5.51-3.86,9.29-4.77,3.77-1.13,7.51-2.26,11.27-3.39l-8.38,1.4-8.38,1.28c-5.58.87-11.16,1.56-16.72,2.28-1.58.32-3.09.38-4.51.27-11.91,2.73-23.85,5.55-35.92,8.61-52.64,13.4-102.95,26.03-152.69,36.25-49.71,10.19-98.9,17.97-148.71,20.8-1.7.51-4.16.02-5.37-1.38-.74-1.29-.31-2.82,1.53-3.15,32.09-7,61.29-18.45,90.28-30.39,14.5-5.98,29-12.19,43.92-18.17,14.92-6,30.28-11.81,46.61-17.2,19.42-6.42,38.7-13.42,57.89-20.78,19.19-7.36,38.31-15.13,57.44-23.31,19.13-8.17,38.28-16.65,57.52-25.52,19.24-8.87,38.58-18.07,58.09-27.57,42.79-13.84,83.19-32.06,122.97-52.92,19.9-10.41,39.67-21.54,59.6-33.17,19.93-11.62,40.01-23.8,60.56-36.41,27.74-17.07,55.15-34.04,82.37-51.05,27.22-17,54.25-34.02,81.2-51.22,53.9-34.39,107.51-69.46,161.42-106.65,19.23-15.34,40.84-25.42,60.42-29.37,19.57-3.94,37.14-1.71,48.01,7.85,13.07,11.72,13.43,31.54,2.86,52.54,3.42-2.32,6.8-4.59,10.25-6.83l17.84-8.6c16.97-8.04,33.86-11.71,47.61-9.92l18.15,1.35c28.19,7.19,63.53,4.18,90.05,13.57l2.69,9.13,4.45-.15c13.46-2.12,25.05-.37,32.84,5.09l5.7,9.21c5.57,11.28,7.9,24.15,6.82,38.74,3.06,3.42,4.86,7.67,5.41,12.57,13.36,3.66,23.61,10.36,26.12,24.53,5.97-.57,8.18,3.66,5.03,9.5-1.1,2-2.76,3.97-4.68,5.69.06,0,.08,0,.08,0,3.93.54,5.09.68,9.99.85,4.59-2.35,7.34-3.58,7.34-3.58q11.83-6.75,22.15-12.5c10.26-3.21,18.4-2.94,18.4-2.94q20.7,8.2,24.52,15.75c0,1.05-.09,2.13-.24,3.2,8.76-3.41,9.38-3.64,11.81-4.47,2.9-.42,5.34-.16,5.34-.16q3.09,3.25,5.3,3.55c1.47,1.05,2.4,2.4,2.4,2.4q-.84,7.01-.06,8.21c-.1,1.79-.7,3.67-.7,3.67-3.69,4.84-5.16,6.77-5.78,7.58-17.09-1.21-17.15-1.21-17.15-1.21l.3,4.84-5.6-2.35,4.32,2.8-6.87,1.62,8.39-1.16q-13.01,7.96-17.7,11.82c-5.33,3.41-8.89,7.64-9.33,8.11,1.34.88,2.03,1.71,2.03,1.71q-13.99,8.43-27.81,16.37c-1.81.04-3.39-.12-4.89-.31-.41,1.97-2.34,4.42-5.06,6-2.39,1.45-4.76,2.88-7.13,4.32-.35.56-.69,1.11-1.01,1.62.13.18.24.28.24.28-1.7,2.43-2.88,4.11-4.22,6.03-.8,1.27-.82,1.31-.82,1.31-.02,0-.07.01-.1,0-2.93,4.15-7.18,10.16-18.42,26.06-4.3,2.46-8.46,4.53-12.49,6.36,1.55-.25,3.04-.48,4.54-.62,3.01-.27,3.64,4.56,5.01,4.04,33.42-13.3,65.99-33.27,98.53-52.45,4.99-4.53,11.52-6.42,14.44-4.29,2.87,2.25,1.05,7.71-4.12,12.32-22.97,32.5-53.98,62.28-88.71,87.5-34.72,25.23-73.13,45.89-110.7,60.58-18.32,9.86-36.61,19.93-55,29.96,1.23.04,2.45.07,3.68.15-5.12,2.07-10.22,4.14-15.32,6.2-.53.26-1.05.54-1.54.83,4.86-.08,9.71-.16,14.54-.24,2.8-.89,5.57-1.82,8.35-2.82,42.1-24.19,85.11-39.28,127.81-60.37,22.94-11.31,44.85-18.1,67.36-27.93,5.2-3.34,10.29-3.65,11.62-.65,1.25,2.88-2.06,8.06-7.13,11.36-30.5,26.05-65.3,51.29-101.13,71.51-35.81,20.24-72.62,35.47-106.71,41.9-12.31,7.87-25.31,13.73-37.73,15.97-.19.09-.41.18-.6.27,3.76.19,7.34.47,11.1.63-10.07,4.55-17.87,3.16-27.5,6.57,2.56,1.9,5.32,3.63,7.88,5.54-24.26,12.13-48.52,26.32-73.06,39.19-24.51,12.88-49.3,24.42-74.24,31.29-1.84.85-3.63,1.52-5.41,2.18-15.67,16.08-31.92,32.04-54.25,45.05,8.17-3.27,16.06-6.61,24.2-9.96-14.55,12.39-29.73,23.55-47.76,32.59-24.34,12.37-51.86,22.33-77.85,27.88-25.98,5.58-50.35,6.81-68.28,2.28-47.33,23.36-95.77,45.36-145.38,65.91-24.8,10.28-49.88,20.23-75.25,29.84-25.39,9.58-51.07,18.82-77.07,27.7-5.33,1.96-10.78,1.46-12.44-.79-1.26-2.35,1.67-5.78,6.99-7.68,36.42-15.08,72.44-30.31,108.05-45.94,35.58-15.66,70.8-31.65,105.43-48.35-61.03,20.44-123.3,38.82-187.41,57.4-4,1.44-8.06,2.81-12.1,4.23-4.05,1.41-8.11,2.81-12.2,4.17-4.04,1.36-8.13,2.47-12.28,3.36-4.15.87-8.34,1.56-12.55,2.17-41.44,11.2-82.64,20.29-124.66,28.44-42.05,8.12-84.9,15.33-130.3,22.14-19.39,2.93-38.39,5.31-57.26,7.3-18.87,1.99-37.6,3.56-56.53,4.62-18.92,1.08-38,1.76-57.57,1.92-19.57.11-39.63-.26-60.47-1.31-58.54-2.88-115.86-11.18-171.98-26.63-28.04-7.75-55.73-17.39-82.93-29.04-27.22-11.6-53.87-25.38-79.74-41.37-14.22-7.83-23.93-20.26-21.67-26.88,2.21-6.64,15.07-5.29,28.8,2.38,27.43,14.21,55.57,26.82,84.21,37.63,28.62,10.84,57.62,20.1,86.83,27.57,29.2,7.51,58.53,13.49,87.83,17.87l10.98,1.63,10.98,1.43,5.48.71,5.48.62,10.96,1.22c14.6,1.46,29.17,2.72,43.7,3.54,14.53.93,29.01,1.37,43.45,1.74,14.43.2,28.83.31,43.16,0,14.34-.2,28.61-.79,42.86-1.45,3.55-.2,7.11-.4,10.66-.6l5.33-.3,5.32-.37c3.54-.24,7.09-.48,10.64-.72,3.53-.28,7.07-.56,10.61-.84,28.3-2.25,56.4-5.36,84.41-9.01,28.02-3.62,55.91-7.93,83.81-12.6,24.08-4.03,47.55-8.62,70.7-13.58-.51-.82-.99-1.63-1.2-2.53-.84-3.58.57-7.39,3.55-11.05-26.11,5.35-52.82,9.47-79.87,12.36-18.22,5.24-36.66,10.13-55.42,14.43-18.77,4.27-37.87,7.97-57.36,10.84-38.94,5.74-79.53,8.19-121.57,4.97-3.6-.25-7.19-.61-10.75-.97-3.56-.37-7.1-.74-10.63-1.16-3.52-.48-7.03-.95-10.51-1.43-1.74-.25-3.48-.5-5.21-.75-1.73-.28-3.46-.57-5.19-.85-3.44-.6-6.87-1.19-10.29-1.79-3.41-.62-6.81-1.33-10.19-2.01-6.75-1.34-13.45-2.9-20.09-4.49-26.55-6.38-52.2-14.58-77.64-23.78-16.82-2.56-33.67-5.51-50.46-9.12-16.79-3.59-33.6-7.58-50.29-12.35-33.41-9.38-66.49-21.27-98.74-35.85-2.72-.87-5-2.87-5.29-4.48-.28-1.63,1.67-2.08,4.4-1.18,46.68,14.96,94.3,27.43,142.28,35.89-3.05-3.12-5.24-6.3-6.36-9.4-1.12-3.1-1.17-6.14.01-8.89,2.43-5.69,9.6-9.32,18.99-10.56-5.01-1.62-10.05-3.13-15.04-4.82-4.98-1.71-9.99-3.33-14.93-5.16-6.08-2.35-10.11-6.31-8.89-9.12,1.27-3.1,6.89-3.67,12.61-1.58,39.93,14.01,80.9,24.56,122.29,31.77,25.17,2.32,50.23,3.58,75.17,3.9,24.95.33,49.78-.41,74.51-1.89-6.91-4.03-11.92-9.01-14.27-14.73-.01-.03-.01-.07-.01-.1-3.78.04-7.55.08-11.31.13-3.77-.01-7.53-.03-11.28-.04-34.59,3.29-69.92,4.2-105.53,1.93-35.6-2.23-71.51-7.41-106.94-16.15-35.42-8.7-70.44-20.7-104-36.29-33.62-15.45-65.79-34.42-95.75-56.28-2.41-1.63-3.72-3.93-2.92-5.15.79-1.2,3.29-.89,5.36.69,35.89,26.26,74.99,48.27,115.92,65.18-.06-.06-.08-.08-.14-.14-1.28-1.51-.92-3.1,1.27-3.24,1.91-.13,5.07,1.29,6.35,2.71,1.48,1.71.69,3.07-1.2,3.24,38.28,15.37,77.99,26.36,117.88,33.14,39.9,6.8,79.97,9.41,119.31,8.48-36.28-2.44-72.55-7.47-108.2-15.63-17.82-4.09-35.49-8.94-52.88-14.67-17.38-5.75-34.48-12.33-51.18-19.78l-6.06-.98c-2.02-.34-4.02-.73-6.04-1.1-4.03-.77-8.11-1.49-12.18-2.39-2.15-.61-4.46-2.58-4.73-4.14-.08-1.32,1.99-1.97,4.19-1.34,2.22.55,4.42,1.07,6.67,1.51-6.22-3.04-11.11-7.09-14.02-11.12-2.87-4.12-3.75-8.23-2.06-11.5,1.98-3.26,6.17-4.9,11.42-5.07,2.64-.1,5.53.18,8.54.86,1.51.34,3.04.78,4.59,1.32,1.55.53,3.14,1.12,4.71,1.83,34.49,13.29,69.61,24.25,105.32,32.69,3.95.56,7.93.95,11.88,1.46,4.15-.18,8.27-.54,12.4-.89-6.87-1.77-13.66-3.81-20.45-5.79-3.39-1.03-6.75-2.12-10.12-3.18-1.68-.54-3.37-1.05-5.05-1.61l-5.01-1.71c-3.33-1.16-6.69-2.24-10-3.47l-9.92-3.64c-3.3-1.22-6.56-2.56-9.83-3.83l-4.9-1.93-4.86-2.04c-25.93-10.76-50.91-23.35-74.81-37.33-4.28-2.05-6.9-5.82-5.78-8.18,1.1-2.37,5.48-2.6,9.7-.57,22.62,8.38,45.6,15.5,68.76,21.63,11.62,2.97,23.23,5.82,34.96,8.22,11.68,2.52,23.47,4.62,35.24,6.59,23.61,3.75,47.33,6.61,71.2,8.25l8.94.62,8.96.47,4.48.24,4.49.16,8.97.34c11.98.28,23.95.52,35.96.34,15.95-5.02,31.64-10.54,47.15-16.46,15.51-5.97,30.84-12.33,46.05-19.01-1.97.04-3.95.1-5.94.18-1.98.05-3.97.12-5.96.22-25.26,1.46-49.35,3.7-73.11,6.13-11.86,1.14-23.66,2.43-35.4,3.48-11.76,1.14-23.48,2.07-35.25,2.86-23.5,1.45-47.2,2.13-71.11.57-11.98-.68-23.96-2.08-36.04-3.93-6-1.05-12.07-2.06-18.07-3.45-3.01-.68-6.05-1.32-9.05-2.1-3-.78-6.01-1.59-9.03-2.42-2.48-.49-4.04-2.3-3.89-3.64.21-1.34,2.22-1.95,4.61-1.16,23.55,6.01,46.79,8.89,69.99,9.93l8.69.37c2.9.06,5.8.11,8.71.17l4.34.08h4.36c2.9,0,5.81,0,8.72,0,11.67-.18,23.35-.38,35.25-.83,39.38-1.38,76.62-5.63,112.37-14.79-36.62,2.16-72.39,4.62-108.3,4.77-35.85.14-71.88-2.08-107.52-9.53-3.2-.34-6.1-1.82-7.58-3.79-.38.64-1.2,1.09-2.25,1.2-4.84.3-9.89.39-14.94.02-2.53-.16-5.09-.37-7.67-.63-2.58-.25-5.13-.65-7.72-1.02-2.04-.12-4.16-1.51-4.61-3.21-.54-1.42,1.04-2.23,3.34-2.19ZM1606.44,307.58c1.01.04,1.83.07,2.6.11-2.31.6-4.8,1.24-7.54,1.95l-14.44-3.01s9.64.42,19.38.95ZM1687.06,201.55s-.02.01-.06.04c4.79.78,8.25,1.35,8.25,1.35-3.36-.57-5.99-1.02-8.19-1.39ZM1016.99,689.82c43.14-16.31,85.84-31.62,129.78-44.22-9.83,5.1-19.66,10.12-29.57,15.11-16.41,5.43-32.95,10.6-49.65,15.46-16.71,4.84-33.57,9.39-50.56,13.65ZM1700.13,290.65c-12.72,2.35-24.1,2.07-35.16,1.29-5.49,5.47-11.72,10.49-18.51,14.9-18.21,11.9-36.45,22.8-54.8,32.9,4.36,1.58-.03,4.03-1.89,5.84-2.01,1.73-4,3.44-5.99,5.15,20.01-10.24,40.08-20.52,60.49-30.97,18.44-9.45,37.55-21.07,55.85-29.12ZM1815.72,185.5c.79-.01,1.49-.03,2.34-.09l.19,6.98s-1.03-2.92-2.53-6.89ZM1814.99,173.98c-.96.43-1.95.84-2.99,1.33-.39-2.35.88-2.38,2.99-1.33ZM1787.66,186.28c2.28.13,3.67.22,5.11-.13-5.09.13-5.11.13-5.11.13ZM1670.64,67.61l8.39,28.98-6.93-28.7-1.46-.29Z"/>
      </g>
    </g>
  </g>
</svg>